<?xml version="1.0" encoding="UTF-8"?>
<svg id="Calque_1" xmlns="http://www.w3.org/2000/svg" viewBox="0 0 140.41 91.91">
  <defs>
    <style>
      .cls-1 {
        fill: #fff;
      }

      .cls-2 {
        fill: #e30513;
      }

      .cls-3 {
        fill: #003aa0;
      }
    </style>
  </defs>
  <path class="cls-3" d="M119.45,91.91v-3.64c0-.18.02-.96.02-1.54h-.02l-1.74,5.18h-.82l-1.73-5.17h-.02c0,.57.02,1.35.02,1.53v3.64h-.81v-6.17h1.19l1.76,5.22h.02l1.75-5.22h1.19v6.17h-.81Z"/>
  <path class="cls-3" d="M121.58,85.74h2.5c1.61,0,2.6,1.22,2.6,3,0,1.39-.61,3.17-2.63,3.17h-2.46v-6.17ZM122.41,91.2h1.62c1.08,0,1.79-.85,1.79-2.41s-.72-2.34-1.85-2.34h-1.56v4.75Z"/>
  <path class="cls-1" d="M70.2,77.21c-30.37,0-55-14.16-55-31.63s24.62-31.62,55-31.62,55,14.16,55,31.62-24.63,31.63-55,31.63"/>
  <path class="cls-3" d="M70.2,0C31.84,0,0,20.41,0,45.59s31.84,46.32,70.2,46.32,70.21-21.14,70.21-46.32S108.57,0,70.2,0M70.2,77.21c-30.37,0-55-14.16-55-31.63s24.62-31.62,55-31.62,55,14.16,55,31.62-24.63,31.63-55,31.63"/>
  <path class="cls-1" d="M43.41,80.69c.44-1.53,1.38-2.66,2.81-2.25,1.43.41,1.63,1.86,1.19,3.39-.42,1.46-1.38,2.66-2.81,2.25-1.43-.41-1.61-1.94-1.19-3.4M45.32,87.5l2.69.67-1.6-2.16c1.67-.25,2.87-1.5,3.43-3.48.81-2.84-.21-5-3.12-5.84-2.91-.83-4.93.47-5.74,3.3-.8,2.81.24,5.01,3.13,5.84v.04s1.21,1.63,1.21,1.63Z"/>
  <path class="cls-1" d="M60.37,85.35c-.37,2.49-2.15,3.37-4.53,3.01-2.37-.35-3.82-1.71-3.45-4.2l.84-5.64,2.42.36-.78,5.24c-.18,1.2,0,2.27,1.23,2.45,1.24.18,1.71-.78,1.89-1.98l.78-5.24,2.42.36-.84,5.64Z"/>
  <path class="cls-1" d="M66.55,78.34l2.46.1-1.46,1.12-1.66-.06.66-1.15ZM63.71,79.89l6.47.26-.07,1.74-4.03-.16-.07,1.89,3.8.15-.07,1.74-3.8-.15-.08,2.08,4.17.17-.07,1.74-6.62-.26.36-9.19Z"/>
  <path class="cls-1" d="M75.54,85.27l.75-.05c.84-.05,1.8-.02,1.87.98.06.93-.87,1.12-1.76,1.18l-.72.04-.13-2.16ZM73.34,89.31l3.86-.24c1.64-.1,3.55-.68,3.41-2.88-.07-1.12-.74-1.74-1.98-1.91v-.03c1-.41,1.55-1.08,1.48-2.24-.1-1.58-1.42-2.25-3.12-2.14l-4.22.26.57,9.18ZM75.32,81.72l.71-.04c.82-.05,1.61-.02,1.66.82.05.78-.77,1.02-1.57,1.07l-.69.04-.11-1.89Z"/>
  <polygon class="cls-1" points="82.5 79.39 88.89 78.31 89.18 80.03 85.2 80.7 85.52 82.56 89.27 81.93 89.56 83.64 85.81 84.28 86.16 86.33 90.27 85.64 90.56 87.35 84.03 88.45 82.5 79.39"/>
  <path class="cls-1" d="M94.56,81.59c-.46-1.56-.14-3.04,1.27-3.46.77-.23,1.59-.06,2.26.4l1.16-1.7c-1.02-.76-2.35-.95-3.95-.48-2.88.85-4.01,3.06-3.15,5.95v.02c.91,2.87,3.07,4.08,5.94,3.18,1.59-.5,2.59-1.41,3.01-2.6l-1.91-.76c-.3.75-.89,1.35-1.65,1.59-1.41.44-2.5-.61-2.99-2.16v.03Z"/>
  <path class="cls-2" d="M95.33,46.69l3.33-12.62,3.33,12.62h-6.67ZM105.66,60.53h8.61l-10.98-34.7h-9.24l-10.98,34.7h8.61l1.94-7.34h10.1l1.94,7.34Z"/>
  <path class="cls-2" d="M25.77,43.93c0,7.11,4.12,18.22,16.36,18.22,7.03,0,12.98-3.74,12.98-11.36h-8.86c0,2.5-2.5,4.5-4.99,4.5-4.62,0-6.24-5-6.24-11.36s1.62-11.36,6.24-11.36c2.5,0,4.99,1.99,4.99,4.49h8.86c0-7.61-5.95-11.36-12.98-11.36-12.23,0-16.36,11.11-16.36,18.23"/>
  <path class="cls-2" d="M64.22,17.34h11.98l9.91,28.83-5.04,15.79h10.45l2.91,8.55-10.74,3-4.58-15.45h-17.8l-4.58,15.45-10.73-3,2.76-8.13s1.99-.17,5.09-3.64c2.49-2.8,2.8-6.86,2.75-9.47h-3.42l11.03-31.93ZM70.21,28.08l-6.3,21.21h12.59l-6.3-21.21Z"/>
</svg>